<svg id="Layer_1" data-name="Layer 1" xmlns="http://www.w3.org/2000/svg" viewBox="0 0 555.07 665.79"><defs><style>.cls-1{font-size:36px;letter-spacing:0.06em;}.cls-1,.cls-101,.cls-113,.cls-8{fill:#00aeef;font-family:SourceSansPro-Semibold, Source Sans Pro;}.cls-1,.cls-101,.cls-113,.cls-41,.cls-9{font-weight:700;}.cls-2{letter-spacing:0.05em;}.cls-3{letter-spacing:0.05em;}.cls-4{font-size:21px;letter-spacing:0.08em;}.cls-105,.cls-117,.cls-17,.cls-22,.cls-4,.cls-44,.cls-58,.cls-85,.cls-88,.cls-99{fill:#231f20;}.cls-17,.cls-4,.cls-44,.cls-58{font-family:SourceSansPro-Regular, Source Sans Pro;}.cls-5{letter-spacing:0.08em;}.cls-6{letter-spacing:0.08em;}.cls-7{letter-spacing:0.05em;}.cls-8{font-size:14px;}.cls-17,.cls-72,.cls-9{letter-spacing:0.02em;}.cls-10{letter-spacing:0.02em;}.cls-11{letter-spacing:0.01em;}.cls-12{letter-spacing:0.01em;}.cls-13{letter-spacing:0.01em;}.cls-14{letter-spacing:0.02em;}.cls-15{letter-spacing:-0.01em;}.cls-16{letter-spacing:0em;}.cls-17,.cls-58{font-size:13px;}.cls-18{letter-spacing:0.01em;}.cls-19{letter-spacing:0.02em;}.cls-20{letter-spacing:0.01em;}.cls-21{letter-spacing:0.02em;}.cls-117,.cls-22,.cls-44{font-size:12px;}.cls-22{font-family:SourceSansPro-Light, Source Sans Pro;}.cls-23{letter-spacing:-0.01em;}.cls-24{letter-spacing:-0.02em;}.cls-25{letter-spacing:-0.01em;}.cls-26{letter-spacing:-0.02em;}.cls-27{letter-spacing:-0.01em;}.cls-28{letter-spacing:0.01em;}.cls-29{letter-spacing:0em;}.cls-30{letter-spacing:-0.01em;}.cls-31{letter-spacing:-0.02em;}.cls-32{letter-spacing:0em;}.cls-33{letter-spacing:-0.01em;}.cls-34{letter-spacing:-0.01em;}.cls-35{letter-spacing:-0.05em;}.cls-36{letter-spacing:0em;}.cls-37{letter-spacing:-0.02em;}.cls-38{letter-spacing:0.04em;}.cls-39{letter-spacing:-0.01em;}.cls-40{letter-spacing:-0.01em;}.cls-42{letter-spacing:-0.01em;}.cls-43{letter-spacing:0em;}.cls-45{letter-spacing:-0.01em;}.cls-46{letter-spacing:0em;}.cls-47{letter-spacing:-0.02em;}.cls-48{letter-spacing:-0.01em;}.cls-49{letter-spacing:-0.02em;}.cls-50{letter-spacing:-0.01em;}.cls-51{letter-spacing:-0.01em;}.cls-52{letter-spacing:-0.02em;}.cls-53{letter-spacing:-0.07em;}.cls-54{letter-spacing:-0.01em;}.cls-55{letter-spacing:0.02em;}.cls-56{letter-spacing:-0.02em;}.cls-57{letter-spacing:0em;}.cls-59{letter-spacing:-0.02em;}.cls-60{letter-spacing:0.02em;}.cls-61{letter-spacing:0em;}.cls-62{letter-spacing:-0.02em;}.cls-63{letter-spacing:0em;}.cls-64{letter-spacing:-0.01em;}.cls-65{letter-spacing:-0.02em;}.cls-66{letter-spacing:-0.02em;}.cls-67{letter-spacing:-0.01em;}.cls-68{letter-spacing:-0.03em;}.cls-69{letter-spacing:0.02em;}.cls-70{letter-spacing:-0.04em;}.cls-71{letter-spacing:-0.05em;}.cls-73{letter-spacing:-0.08em;}.cls-74{letter-spacing:0.02em;}.cls-75{letter-spacing:0.04em;}.cls-76{letter-spacing:0.02em;}.cls-77{letter-spacing:0em;}.cls-78{letter-spacing:-0.02em;}.cls-79{letter-spacing:-0.07em;}.cls-80{letter-spacing:-0.01em;}.cls-81{letter-spacing:-0.01em;}.cls-82{letter-spacing:0.03em;}.cls-83{letter-spacing:-0.01em;}.cls-84{letter-spacing:-0.02em;}.cls-85{font-size:16px;}.cls-117,.cls-85{font-family:MyriadPro-Regular, Myriad Pro;}.cls-86{letter-spacing:-0.03em;}.cls-87{letter-spacing:0em;}.cls-105,.cls-88,.cls-99{font-size:10px;font-family:FiraSans-ExtraLight, Fira Sans;}.cls-88,.cls-94{letter-spacing:0.1em;}.cls-89{letter-spacing:0.08em;}.cls-90{letter-spacing:0.06em;}.cls-91{letter-spacing:0.09em;}.cls-92,.cls-99{letter-spacing:0.1em;}.cls-93{letter-spacing:0.09em;}.cls-95{letter-spacing:0.08em;}.cls-96{letter-spacing:0.08em;}.cls-97{letter-spacing:0em;}.cls-98{letter-spacing:-0.01em;}.cls-100{letter-spacing:0.1em;}.cls-101{font-size:18px;}.cls-102{letter-spacing:-0.01em;}.cls-103{letter-spacing:-0.01em;}.cls-104{letter-spacing:-0.02em;}.cls-106{letter-spacing:-0.01em;}.cls-107{letter-spacing:-0.02em;}.cls-108{letter-spacing:0em;}.cls-109{letter-spacing:-0.01em;}.cls-110{letter-spacing:-0.04em;}.cls-111{letter-spacing:0.01em;}.cls-112{letter-spacing:0em;}.cls-113{font-size:20px;letter-spacing:0.02em;}.cls-114{letter-spacing:0.06em;}.cls-115{letter-spacing:0.04em;}.cls-116{letter-spacing:0.06em;}.cls-118{letter-spacing:0.02em;}.cls-119{letter-spacing:-0.04em;}.cls-120{letter-spacing:-0.03em;}.cls-121{letter-spacing:0em;}.cls-122{letter-spacing:-0.01em;}.cls-123{letter-spacing:-0.03em;}.cls-124{letter-spacing:0em;}.cls-125{letter-spacing:-0.02em;}.cls-126{letter-spacing:-0.03em;}.cls-127{letter-spacing:0em;}.cls-128{letter-spacing:-0.03em;}.cls-129{fill:none;stroke:#00aeef;stroke-miterlimit:10;}.cls-130{letter-spacing:0.01em;}.cls-131{letter-spacing:0em;}.cls-132{letter-spacing:-0.04em;}.cls-133{letter-spacing:-0.03em;}.cls-134{letter-spacing:0.01em;}.cls-135{letter-spacing:0.02em;}.cls-136{letter-spacing:-0.02em;}.cls-137{letter-spacing:-0.01em;}.cls-138{letter-spacing:-0.02em;}.cls-139{letter-spacing:-0.02em;}</style></defs><title>mark_sweet_resume</title><text class="cls-1" transform="translate(178.06 29.88)">Mark S<tspan class="cls-2" x="117.39" y="0">w</tspan><tspan x="146.27" y="0">e</tspan><tspan class="cls-3" x="166.68" y="0">e</tspan><tspan x="186.73" y="0">t</tspan></text><text class="cls-4" transform="translate(152.47 52.38)">Web D<tspan class="cls-5" x="64.05" y="0">e</tspan><tspan class="cls-6" x="76.25" y="0">v</tspan><tspan x="87.65" y="0">elope</tspan><tspan class="cls-7" x="145.28" y="0">r</tspan><tspan x="153.53" y="0">/Designer</tspan></text><text class="cls-8" transform="translate(175.5 173.88)"><tspan class="cls-9">S<tspan class="cls-10" x="7.91" y="0">o</tspan><tspan x="15.82" y="0">ft</tspan><tspan class="cls-11" x="25.09" y="0">w</tspan><tspan x="35.7" y="0">a</tspan><tspan class="cls-12" x="43.2" y="0">r</tspan><tspan x="48.57" y="0">e De</tspan><tspan class="cls-13" x="75.43" y="0">v</tspan><tspan class="cls-14" x="82.56" y="0">elope</tspan><tspan class="cls-15" x="117.53" y="0">r</tspan><tspan class="cls-12" x="122.63" y="0">/</tspan><tspan x="127.58" y="0">Consul</tspan><tspan class="cls-16" x="170.46" y="0">t</tspan><tspan x="175.5" y="0">ant - Mar - July 2017</tspan></tspan><tspan class="cls-17"><tspan x="0" y="15.6">Cap</tspan><tspan class="cls-18" x="21.97" y="15.6">g</tspan><tspan class="cls-19" x="28.6" y="15.6">emini - Chi</tspan><tspan class="cls-20" x="89.13" y="15.6">c</tspan><tspan class="cls-21" x="95.18" y="15.6">a</tspan><tspan class="cls-18" x="102" y="15.6">g</tspan><tspan class="cls-20" x="108.63" y="15.6">o</tspan><tspan class="cls-19" x="115.8" y="15.6">, IL</tspan></tspan><tspan class="cls-22"><tspan x="0" y="30">– Used the Gosu p</tspan><tspan class="cls-23" x="87.44" y="30">r</tspan><tspan x="91.13" y="30">og</tspan><tspan class="cls-24" x="103.39" y="30">r</tspan><tspan x="106.94" y="30">amming langua</tspan><tspan class="cls-25" x="182.9" y="30">g</tspan><tspan x="188.61" y="30">e </tspan><tspan class="cls-25" x="196.81" y="30">t</tspan><tspan x="200.42" y="30">o build cu</tspan><tspan class="cls-26" x="248.35" y="30">s</tspan><tspan class="cls-25" x="252.97" y="30">t</tspan><tspan x="256.58" y="30">om soft</tspan><tspan class="cls-23" x="292.89" y="30">w</tspan><tspan x="300.99" y="30">a</tspan><tspan class="cls-27" x="306.88" y="30">r</tspan><tspan x="310.57" y="30">e in Guid</tspan><tspan class="cls-28" x="353.18" y="30">e</tspan><tspan class="cls-29" x="359.12" y="30">wi</tspan><tspan class="cls-27" x="370.09" y="30">r</tspan><tspan x="373.77" y="30">e</tspan><tspan x="0" y="44.4" xml:space="preserve">–  In</tspan><tspan class="cls-30" x="19.82" y="44.4">t</tspan><tspan class="cls-27" x="23.44" y="44.4">e</tspan><tspan class="cls-29" x="29.11" y="44.4">g</tspan><tspan class="cls-24" x="34.96" y="44.4">r</tspan><tspan class="cls-25" x="38.51" y="44.4">at</tspan><tspan x="47.88" y="44.4">ed client</tspan><tspan class="cls-31" x="89.51" y="44.4">&apos;</tspan><tspan class="cls-32" x="91.9" y="44.4">s old sy</tspan><tspan class="cls-26" x="127.44" y="44.4">s</tspan><tspan class="cls-25" x="132.06" y="44.4">t</tspan><tspan x="135.67" y="44.4">ems and in</tspan><tspan class="cls-33" x="188.81" y="44.4">f</tspan><tspan x="191.84" y="44.4">orm</tspan><tspan class="cls-34" x="211.81" y="44.4">a</tspan><tspan class="cls-32" x="217.57" y="44.4">tion in</tspan><tspan class="cls-25" x="248.4" y="44.4">t</tspan><tspan x="252.01" y="44.4">o Guid</tspan><tspan class="cls-28" x="283.71" y="44.4">e</tspan><tspan class="cls-29" x="289.65" y="44.4">wi</tspan><tspan class="cls-23" x="300.62" y="44.4">r</tspan><tspan x="304.3" y="44.4">e</tspan><tspan x="0" y="58.8">– </tspan><tspan class="cls-35" x="8.16" y="58.8">T</tspan><tspan class="cls-24" x="13.86" y="58.8">r</tspan><tspan class="cls-36" x="17.41" y="58.8">ained in </tspan><tspan class="cls-37" x="58.69" y="58.8">c</tspan><tspan x="63.88" y="58.8">onsulting </tspan><tspan class="cls-25" x="111.85" y="58.8">t</tspan><tspan class="cls-32" x="115.46" y="58.8">echniques including in</tspan><tspan class="cls-25" x="224.79" y="58.8">t</tspan><tspan x="228.41" y="58.8">e</tspan><tspan class="cls-38" x="234.2" y="58.8">r</tspan><tspan x="238.44" y="58.8">vi</tspan><tspan class="cls-28" x="246.39" y="58.8">e</tspan><tspan x="252.33" y="58.8">wing and c</tspan><tspan class="cls-27" x="304.52" y="58.8">r</tspan><tspan class="cls-39" x="308.2" y="58.8">e</tspan><tspan class="cls-25" x="313.82" y="58.8">a</tspan><tspan x="319.58" y="58.8">ting </tspan><tspan x="0" y="73.2">p</tspan><tspan class="cls-40" x="6.53" y="73.2">r</tspan><tspan x="10.21" y="73.2">oposals</tspan></tspan></text><text class="cls-8" transform="translate(175.5 268.38)"><tspan class="cls-41"><tspan class="cls-42">U</tspan><tspan class="cls-43" x="9.03" y="0">X/Web Designer - Dec 2016 - P</tspan><tspan class="cls-42" x="185.59" y="0">r</tspan><tspan x="190.68" y="0">esent</tspan></tspan><tspan class="cls-44"><tspan class="cls-45" x="0" y="14.4">F</tspan><tspan x="5.76" y="14.4">ourth P</tspan><tspan class="cls-27" x="42.73" y="14.4">r</tspan><tspan class="cls-32" x="46.78" y="14.4">es</tspan><tspan class="cls-46" x="57.75" y="14.4">b</tspan><tspan class="cls-29" x="64.34" y="14.4">y</tspan><tspan class="cls-45" x="69.95" y="14.4">t</tspan><tspan x="73.83" y="14.4">erian Chu</tspan><tspan class="cls-27" x="121.82" y="14.4">r</tspan><tspan x="125.87" y="14.4">ch - </tspan><tspan class="cls-47" x="146.4" y="14.4">P</tspan><tspan class="cls-37" x="152.9" y="14.4">o</tspan><tspan class="cls-48" x="159.2" y="14.4">t</tspan><tspan x="163.09" y="14.4">omac, MD</tspan></tspan><tspan class="cls-22"><tspan x="0" y="28.8">– C</tspan><tspan class="cls-27" x="14.93" y="28.8">r</tspan><tspan class="cls-39" x="18.61" y="28.8">e</tspan><tspan class="cls-25" x="24.23" y="28.8">at</tspan><tspan x="33.6" y="28.8">e and i</tspan><tspan class="cls-25" x="65.75" y="28.8">t</tspan><tspan x="69.36" y="28.8">e</tspan><tspan class="cls-24" x="75.16" y="28.8">r</tspan><tspan class="cls-25" x="78.71" y="28.8">at</tspan><tspan x="88.08" y="28.8">e on wi</tspan><tspan class="cls-27" x="122.45" y="28.8">r</tspan><tspan x="126.13" y="28.8">ef</tspan><tspan class="cls-49" x="135.08" y="28.8">r</tspan><tspan x="138.63" y="28.8">ames, p</tspan><tspan class="cls-23" x="176.48" y="28.8">r</tspan><tspan class="cls-50" x="180.17" y="28.8">o</tspan><tspan class="cls-25" x="186.44" y="28.8">t</tspan><tspan class="cls-51" x="190.05" y="28.8">o</tspan><tspan class="cls-32" x="196.33" y="28.8">types </tspan><tspan class="cls-52" x="224.89" y="28.8">b</tspan><tspan class="cls-29" x="231.21" y="28.8">ased on </tspan><tspan class="cls-27" x="271.89" y="28.8">f</tspan><tspan x="274.93" y="28.8">eed</tspan><tspan class="cls-39" x="293.05" y="28.8">b</tspan><tspan x="299.37" y="28.8">ack f</tspan><tspan class="cls-27" x="321.78" y="28.8">r</tspan><tspan x="325.46" y="28.8">om </tspan><tspan x="0" y="43.2">in</tspan><tspan class="cls-25" x="9.13" y="43.2">t</tspan><tspan x="12.74" y="43.2">e</tspan><tspan class="cls-38" x="18.54" y="43.2">r</tspan><tspan x="22.78" y="43.2">vi</tspan><tspan class="cls-28" x="30.73" y="43.2">e</tspan><tspan x="36.67" y="43.2">ws and </tspan><tspan class="cls-25" x="73.35" y="43.2">t</tspan><tspan x="76.97" y="43.2">e</tspan><tspan class="cls-26" x="82.76" y="43.2">s</tspan><tspan x="87.38" y="43.2">ting</tspan></tspan></text><text class="cls-8" transform="translate(175.5 331.38)"><tspan class="cls-41"><tspan class="cls-53">T</tspan><tspan class="cls-54" x="6.65" y="0">e</tspan><tspan x="13.58" y="0">aching </tspan><tspan class="cls-55" x="56.67" y="0">A</tspan><tspan x="64.74" y="0">ssi</tspan><tspan class="cls-26" x="80.47" y="0">s</tspan><tspan class="cls-56" x="86.22" y="0">t</tspan><tspan x="90.99" y="0">ant - Janua</tspan><tspan class="cls-10" x="158.2" y="0">r</tspan><tspan class="cls-57" x="163.64" y="0">y - Ma</tspan><tspan class="cls-42" x="198.33" y="0">r</tspan><tspan x="203.42" y="0">ch 2017</tspan></tspan><tspan class="cls-58"><tspan x="0" y="15.6">Gene</tspan><tspan class="cls-59" x="28.03" y="15.6">r</tspan><tspan x="32.23" y="15.6">al </tspan><tspan class="cls-60" x="44.69" y="15.6">A</tspan><tspan class="cls-61" x="52.06" y="15.6">ssembly - </tspan><tspan class="cls-62" x="106" y="15.6">W</tspan><tspan class="cls-63" x="116.01" y="15.6">ashing</tspan><tspan class="cls-64" x="151.94" y="15.6">t</tspan><tspan x="156.15" y="15.6">on D.C.</tspan></tspan><tspan class="cls-22"><tspan x="0" y="30">– Sele</tspan><tspan class="cls-27" x="28.85" y="30">c</tspan><tspan class="cls-25" x="34.12" y="30">t</tspan><tspan x="37.73" y="30">ed f</tspan><tspan class="cls-27" x="55.61" y="30">r</tspan><tspan x="59.29" y="30">om my class </tspan><tspan class="cls-25" x="121.47" y="30">t</tspan><tspan class="cls-32" x="125.09" y="30">o be a </tspan><tspan class="cls-30" x="156.9" y="30">t</tspan><tspan class="cls-39" x="160.51" y="30">e</tspan><tspan x="166.13" y="30">aching assi</tspan><tspan class="cls-26" x="219.48" y="30">s</tspan><tspan class="cls-65" x="224.1" y="30">t</tspan><tspan class="cls-29" x="227.58" y="30">ant </tspan><tspan class="cls-27" x="246" y="30">f</tspan><tspan x="249.03" y="30">or </tspan><tspan class="cls-52" x="261.66" y="30">p</tspan><tspan x="268" y="30">art time </tspan><tspan class="cls-26" x="308.28" y="30">s</tspan><tspan x="312.9" y="30">tuden</tspan><tspan class="cls-27" x="341.7" y="30">t</tspan><tspan class="cls-32" x="345.32" y="30">s</tspan><tspan x="0" y="44.4">– Wor</tspan><tspan class="cls-51" x="27.62" y="44.4">k</tspan><tspan x="33.05" y="44.4">ed with f</tspan><tspan class="cls-27" x="74.38" y="44.4">r</tspan><tspan x="78.06" y="44.4">on</tspan><tspan class="cls-26" x="90.86" y="44.4">t</tspan><tspan x="94.37" y="44.4">-end web d</tspan><tspan class="cls-28" x="148.51" y="44.4">e</tspan><tspan x="154.45" y="44.4">velopment </tspan><tspan class="cls-26" x="209.31" y="44.4">s</tspan><tspan x="213.93" y="44.4">tuden</tspan><tspan class="cls-27" x="242.73" y="44.4">t</tspan><tspan x="246.36" y="44.4">s </tspan><tspan class="cls-25" x="253.62" y="44.4">t</tspan><tspan x="257.23" y="44.4">o help </tspan><tspan class="cls-25" x="289.95" y="44.4">t</tspan><tspan class="cls-52" x="293.56" y="44.4">e</tspan><tspan class="cls-29" x="299.18" y="44.4">ach and </tspan><tspan x="0" y="58.8">answer any que</tspan><tspan class="cls-26" x="75.93" y="58.8">s</tspan><tspan x="80.55" y="58.8">tions about f</tspan><tspan class="cls-27" x="141.57" y="58.8">r</tspan><tspan x="145.26" y="58.8">on</tspan><tspan class="cls-26" x="158.06" y="58.8">t</tspan><tspan class="cls-29" x="161.57" y="58.8">-end </tspan><tspan class="cls-25" x="186.26" y="58.8">t</tspan><tspan x="189.87" y="58.8">echnologies being </tspan><tspan class="cls-66" x="280.78" y="58.8">t</tspan><tspan x="284.26" y="58.8">aught in class</tspan></tspan></text><text class="cls-8" transform="translate(175.5 407.88)"><tspan class="cls-41">Web De<tspan class="cls-67" x="44.83" y="0">v</tspan><tspan class="cls-57" x="51.67" y="0">elopment Imme</tspan><tspan class="cls-67" x="147.39" y="0">r</tspan><tspan x="152.53" y="0">si</tspan><tspan class="cls-67" x="162.23" y="0">v</tspan><tspan class="cls-57" x="169.08" y="0">e </tspan><tspan class="cls-68" x="178.97" y="0">S</tspan><tspan x="186.24" y="0">tudent - Sep - Dec 2016</tspan></tspan><tspan class="cls-58"><tspan x="0" y="15.6">Gene</tspan><tspan class="cls-59" x="28.03" y="15.6">r</tspan><tspan x="32.23" y="15.6">al </tspan><tspan class="cls-60" x="44.69" y="15.6">A</tspan><tspan class="cls-61" x="52.06" y="15.6">ssembly - </tspan><tspan class="cls-62" x="106" y="15.6">W</tspan><tspan class="cls-63" x="116.01" y="15.6">ashing</tspan><tspan class="cls-64" x="151.94" y="15.6">t</tspan><tspan x="156.15" y="15.6">on D.C.</tspan></tspan><tspan class="cls-22"><tspan x="0" y="30">– Th</tspan><tspan class="cls-27" x="20.78" y="30">r</tspan><tspan x="24.47" y="30">ee month (480+ hours) web d</tspan><tspan class="cls-28" x="165.19" y="30">e</tspan><tspan x="171.13" y="30">velopment </tspan><tspan class="cls-37" x="225.99" y="30">c</tspan><tspan x="231.18" y="30">ourse whe</tspan><tspan class="cls-27" x="281.16" y="30">r</tspan><tspan x="284.84" y="30">e I l</tspan><tspan class="cls-52" x="301.16" y="30">e</tspan><tspan class="cls-29" x="306.77" y="30">arned </tspan><tspan x="0" y="44.4">and utili</tspan><tspan class="cls-27" x="39.64" y="44.4">z</tspan><tspan x="44.36" y="44.4">ed the mo</tspan><tspan class="cls-26" x="93.53" y="44.4">s</tspan><tspan x="98.15" y="44.4">t popular f</tspan><tspan class="cls-27" x="148.21" y="44.4">r</tspan><tspan x="151.89" y="44.4">ont and </tspan><tspan class="cls-39" x="192.04" y="44.4">b</tspan><tspan x="198.37" y="44.4">ac</tspan><tspan class="cls-24" x="209.65" y="44.4">k</tspan><tspan x="214.96" y="44.4">-end langua</tspan><tspan class="cls-25" x="272.86" y="44.4">g</tspan><tspan x="278.58" y="44.4">es including: </tspan><tspan x="0" y="58.8">HTML</tspan><tspan class="cls-27" x="28.03" y="58.8">/</tspan><tspan class="cls-49" x="32.2" y="58.8">C</tspan><tspan class="cls-25" x="38.71" y="58.8">S</tspan><tspan x="44.83" y="58.8">S, Ja</tspan><tspan class="cls-26" x="67.55" y="58.8">v</tspan><tspan x="72.52" y="58.8">aScri</tspan><tspan class="cls-50" x="96.6" y="58.8">p</tspan><tspan class="cls-69" x="102.98" y="58.8">t</tspan><tspan x="106.94" y="58.8">, Ruby on Rails, Angula</tspan><tspan class="cls-70" x="215.71" y="58.8">r</tspan><tspan x="219.04" y="58.8">, </tspan><tspan class="cls-27" x="224.07" y="58.8">R</tspan><tspan class="cls-52" x="230.48" y="58.8">e</tspan><tspan class="cls-29" x="236.1" y="58.8">a</tspan><tspan class="cls-27" x="241.99" y="58.8">c</tspan><tspan class="cls-69" x="247.26" y="58.8">t</tspan><tspan x="251.22" y="58.8">, and </tspan><tspan class="cls-51" x="277.45" y="58.8">o</tspan><tspan x="283.72" y="58.8">thers</tspan><tspan x="0" y="73.2">– </tspan><tspan class="cls-71" x="8.16" y="73.2">T</tspan><tspan class="cls-29" x="13.86" y="73.2">rivia P</tspan><tspan class="cls-27" x="43.25" y="73.2">r</tspan><tspan x="46.93" y="73.2">oje</tspan><tspan class="cls-27" x="61.89" y="73.2">c</tspan><tspan class="cls-72" x="67.16" y="73.2">t</tspan><tspan x="71.15" y="73.2">: HTML</tspan><tspan class="cls-27" x="104.21" y="73.2">/</tspan><tspan class="cls-24" x="108.37" y="73.2">C</tspan><tspan class="cls-25" x="114.89" y="73.2">S</tspan><tspan x="121.01" y="73.2">S</tspan><tspan class="cls-73" x="127.26" y="73.2">/</tspan><tspan x="130.58" y="73.2">Ja</tspan><tspan class="cls-31" x="142.02" y="73.2">v</tspan><tspan x="146.99" y="73.2">aScri</tspan><tspan class="cls-50" x="171.07" y="73.2">p</tspan><tspan class="cls-74" x="177.45" y="73.2">t</tspan><tspan class="cls-38" x="181.43" y="73.2">/</tspan><tspan class="cls-32" x="186.14" y="73.2">jQue</tspan><tspan class="cls-75" x="208.86" y="73.2">r</tspan><tspan class="cls-26" x="213.09" y="73.2">y</tspan><tspan class="cls-29" x="218.08" y="73.2">, </tspan><tspan x="0" y="87.6">– </tspan><tspan class="cls-25" x="8.16" y="87.6">F</tspan><tspan x="13.75" y="87.6">eedMe P</tspan><tspan class="cls-23" x="55.13" y="87.6">r</tspan><tspan class="cls-32" x="58.81" y="87.6">oje</tspan><tspan class="cls-23" x="73.77" y="87.6">c</tspan><tspan class="cls-76" x="79.04" y="87.6">t</tspan><tspan x="83.03" y="87.6">: Rails </tspan><tspan class="cls-39" x="113.33" y="87.6">b</tspan><tspan x="119.65" y="87.6">ac</tspan><tspan class="cls-51" x="130.93" y="87.6">k</tspan><tspan x="136.35" y="87.6">end, Angular </tspan><tspan class="cls-26" x="199.92" y="87.6">F</tspan><tspan class="cls-23" x="205.4" y="87.6">r</tspan><tspan x="209.08" y="87.6">on</tspan><tspan class="cls-26" x="221.89" y="87.6">t</tspan><tspan x="225.39" y="87.6">-end</tspan></tspan></text><text class="cls-8" transform="translate(175.5 515.88)"><tspan class="cls-41">Su<tspan class="cls-77" x="15.41" y="0">b</tspan><tspan class="cls-26" x="23.24" y="0">s</tspan><tspan x="28.99" y="0">titu</tspan><tspan class="cls-78" x="50.55" y="0">t</tspan><tspan x="55.38" y="0">e </tspan><tspan class="cls-79" x="65.28" y="0">T</tspan><tspan class="cls-54" x="71.93" y="0">e</tspan><tspan x="78.86" y="0">acher - Mar 2017 - P</tspan><tspan class="cls-80" x="195.45" y="0">r</tspan><tspan class="cls-57" x="200.53" y="0">esent</tspan></tspan><tspan class="cls-58"><tspan x="0" y="15.6">Mon</tspan><tspan class="cls-81" x="23.61" y="15.6">t</tspan><tspan class="cls-64" x="27.87" y="15.6">g</tspan><tspan x="34.24" y="15.6">ome</tspan><tspan class="cls-82" x="58.51" y="15.6">r</tspan><tspan class="cls-61" x="63.35" y="15.6">y County Public Schools - </tspan><tspan class="cls-83" x="202.43" y="15.6">R</tspan><tspan x="209.7" y="15.6">ockville, MD</tspan></tspan><tspan class="cls-22"><tspan x="0" y="30">– </tspan><tspan class="cls-25" x="8.16" y="30">L</tspan><tspan class="cls-39" x="13.63" y="30">e</tspan><tspan x="19.25" y="30">ad class</tspan><tspan class="cls-23" x="57.91" y="30">r</tspan><tspan x="61.6" y="30">ooms of 25-30 </tspan><tspan class="cls-84" x="132.39" y="30">s</tspan><tspan x="137.01" y="30">tuden</tspan><tspan class="cls-27" x="165.81" y="30">t</tspan><tspan x="169.44" y="30">s, </tspan><tspan class="cls-25" x="179.33" y="30">t</tspan><tspan class="cls-39" x="182.94" y="30">e</tspan><tspan x="188.55" y="30">ach a wide </tspan><tspan class="cls-26" x="242.55" y="30">v</tspan><tspan class="cls-29" x="247.52" y="30">ari</tspan><tspan class="cls-27" x="259.96" y="30">e</tspan><tspan x="265.64" y="30">ty of subje</tspan><tspan class="cls-23" x="315.25" y="30">ct</tspan><tspan class="cls-32" x="324.14" y="30">s </tspan><tspan x="0" y="44.4">including m</tspan><tspan class="cls-25" x="57.36" y="44.4">a</tspan><tspan x="63.12" y="44.4">th and scien</tspan><tspan class="cls-37" x="121.98" y="44.4">c</tspan><tspan x="127.16" y="44.4">e</tspan><tspan x="0" y="58.8">– Work di</tspan><tspan class="cls-27" x="44.87" y="58.8">r</tspan><tspan x="48.55" y="58.8">e</tspan><tspan class="cls-23" x="54.35" y="58.8">c</tspan><tspan class="cls-32" x="59.62" y="58.8">tly with </tspan><tspan class="cls-26" x="97.28" y="58.8">s</tspan><tspan x="101.9" y="58.8">tuden</tspan><tspan class="cls-27" x="130.7" y="58.8">t</tspan><tspan class="cls-32" x="134.33" y="58.8">s </tspan><tspan class="cls-25" x="141.59" y="58.8">t</tspan><tspan x="145.2" y="58.8">o help with their school work and hom</tspan><tspan class="cls-28" x="330.98" y="58.8">e</tspan><tspan x="336.92" y="58.8">work</tspan></tspan></text><text class="cls-85" transform="translate(0 173.88) scale(1.02 1)"><tspan class="cls-86">W</tspan><tspan x="13.01" y="0">eb </tspan><tspan class="cls-87" x="33.52" y="0">D</tspan><tspan x="44.24" y="0">ev</tspan></text><text class="cls-88" transform="translate(0 189.88) scale(1.02 1)">H<tspan class="cls-89" x="7.67" y="0">T</tspan><tspan x="13.34" y="0">ML</tspan><tspan class="cls-90" x="27.72" y="0">/</tspan><tspan x="33.52" y="0">C</tspan><tspan class="cls-91" x="39.99" y="0">S</tspan><tspan class="cls-92" x="46.26" y="0">S</tspan><tspan class="cls-92"><tspan x="0" y="12">J</tspan><tspan class="cls-93" x="3.86" y="12">a</tspan><tspan class="cls-94" x="10.1" y="12">vaScript</tspan></tspan><tspan x="0" y="24">Bootst</tspan><tspan class="cls-95" x="34.59" y="24">r</tspan><tspan x="39.08" y="24">ap</tspan><tspan x="0" y="36">Python</tspan><tspan x="0" y="48">Ru</tspan><tspan class="cls-91" x="13.62" y="48">b</tspan><tspan x="20.28" y="48">y</tspan><tspan x="0" y="60">Angular</tspan><tspan class="cls-96"><tspan x="0" y="72">R</tspan><tspan class="cls-94" x="6.59" y="72">eact</tspan></tspan></text><text class="cls-85" transform="translate(87.16 173.88) scale(1.02 1)"><tspan class="cls-87">D</tspan><tspan class="cls-97" x="10.72" y="0">esi</tspan><tspan class="cls-98" x="28.82" y="0">g</tspan><tspan x="37.66" y="0">n</tspan></text><text class="cls-99" transform="translate(87.16 189.88) scale(1.02 1)">S<tspan class="cls-91" x="6.37" y="0">k</tspan><tspan class="cls-94" x="12.07" y="0">e</tspan><tspan class="cls-91" x="18.41" y="0">t</tspan><tspan class="cls-100" x="22.65" y="0">ch</tspan><tspan class="cls-94"><tspan x="0" y="12">Balsamiq</tspan></tspan><tspan x="0" y="24">I</tspan><tspan class="cls-93" x="3.77" y="24">n</tspan><tspan x="10.5" y="24">vision</tspan><tspan class="cls-94"><tspan x="0" y="36">Wi</tspan><tspan class="cls-93" x="12.7" y="36">r</tspan><tspan x="17.29" y="36">ef</tspan><tspan class="cls-89" x="27.79" y="36">r</tspan><tspan x="32.28" y="36">aming</tspan></tspan><tspan class="cls-96"><tspan x="0" y="48">R</tspan><tspan class="cls-94" x="6.59" y="48">esea</tspan><tspan class="cls-91" x="31.24" y="48">r</tspan><tspan class="cls-94" x="35.83" y="48">ch</tspan></tspan><tspan x="0" y="60">Illust</tspan><tspan class="cls-95" x="28.14" y="60">r</tspan><tspan class="cls-94" x="32.63" y="60">a</tspan><tspan class="cls-91" x="38.97" y="60">t</tspan><tspan class="cls-94" x="43.21" y="60">or</tspan></text><text class="cls-101" transform="translate(0 290.88) scale(1.02 1)"><tspan class="cls-102">E</tspan><tspan x="9.5" y="0">du</tspan><tspan class="cls-103" x="29.66" y="0">c</tspan><tspan class="cls-104" x="37.8" y="0">a</tspan><tspan x="46.8" y="0">tion</tspan></text><text class="cls-105" transform="translate(0 313.38) scale(1.02 1)">User Experien<tspan class="cls-106" x="61.13" y="0">c</tspan><tspan x="65.69" y="0">e Design</tspan><tspan x="0" y="12">Gene</tspan><tspan class="cls-107" x="22.65" y="12">r</tspan><tspan class="cls-108" x="26.14" y="12">al Aseebmly - June 2</tspan><tspan class="cls-109" x="116.79" y="12">0</tspan><tspan x="122.16" y="12">17</tspan><tspan class="cls-109" x="0" y="40.8">B</tspan><tspan x="5.84" y="40.8">S - </tspan><tspan class="cls-110" x="20.89" y="40.8">F</tspan><tspan class="cls-108" x="25.31" y="40.8">amily Scien</tspan><tspan class="cls-109" x="75.92" y="40.8">c</tspan><tspan class="cls-108" x="80.48" y="40.8">e</tspan><tspan x="0" y="52.8">Uni</tspan><tspan class="cls-109" x="14.97" y="52.8">v</tspan><tspan x="19.49" y="52.8">e</tspan><tspan class="cls-106" x="24.83" y="52.8">r</tspan><tspan x="28.42" y="52.8">sity of Ma</tspan><tspan class="cls-111" x="71.21" y="52.8">r</tspan><tspan class="cls-112" x="75" y="52.8">yland - 2</tspan><tspan class="cls-109" x="113.79" y="52.8">0</tspan><tspan x="119.16" y="52.8">12</tspan></text><text class="cls-113" transform="translate(175.5 151.38)">E<tspan class="cls-114" x="11.2" y="0">xperien</tspan><tspan class="cls-115" x="84.68" y="0">c</tspan><tspan class="cls-116" x="94.64" y="0">e</tspan></text><text class="cls-117" transform="translate(175.5 593.38)"><tspan class="cls-118">O</tspan><tspan class="cls-29" x="8.47" y="0">ther</tspan><tspan class="cls-119" x="29.04" y="0"> </tspan><tspan class="cls-120" x="31.15" y="0">W</tspan><tspan x="40.91" y="0">o</tspan><tspan class="cls-121" x="47.5" y="0">r</tspan><tspan x="51.47" y="0">k Expe</tspan><tspan class="cls-121" x="83.94" y="0">r</tspan><tspan x="87.91" y="0">ien</tspan><tspan class="cls-122" x="103.39" y="0">c</tspan><tspan x="108.69" y="0">e</tspan></text><text class="cls-8" transform="translate(175.5 610.71)"><tspan class="cls-41">Owner and Ph<tspan class="cls-66" x="84.59" y="0">o</tspan><tspan class="cls-78" x="91.96" y="0">t</tspan><tspan x="96.79" y="0">og</tspan><tspan class="cls-123" x="111.76" y="0">r</tspan><tspan x="116.62" y="0">apher - Jan 2012 - P</tspan><tspan class="cls-42" x="233.74" y="0">r</tspan><tspan x="238.82" y="0">esent</tspan></tspan><tspan class="cls-58"><tspan x="0" y="15.6">Mark S</tspan><tspan class="cls-124" x="36.49" y="15.6">w</tspan><tspan class="cls-61" x="45.77" y="15.6">e</tspan><tspan class="cls-83" x="52.22" y="15.6">e</tspan><tspan x="58.54" y="15.6">t Ph</tspan><tspan class="cls-125" x="79.96" y="15.6">o</tspan><tspan class="cls-64" x="86.79" y="15.6">t</tspan><tspan x="91" y="15.6">og</tspan><tspan class="cls-59" x="104.6" y="15.6">r</tspan><tspan x="108.8" y="15.6">aphy - </tspan><tspan class="cls-83" x="144.95" y="15.6">R</tspan><tspan x="152.21" y="15.6">ockville, MD</tspan></tspan></text><text class="cls-8" transform="translate(175.5 646.38)"><tspan class="cls-41"><tspan class="cls-66">P</tspan><tspan x="7.84" y="0">e</tspan><tspan class="cls-67" x="14.94" y="0">r</tspan><tspan x="20.08" y="0">sonal </tspan><tspan class="cls-55" x="55.45" y="0">A</tspan><tspan class="cls-43" x="63.52" y="0">ssi</tspan><tspan class="cls-26" x="79.25" y="0">s</tspan><tspan class="cls-56" x="85.01" y="0">t</tspan><tspan x="89.77" y="0" xml:space="preserve">ant - Sep  - Dec 2015</tspan></tspan><tspan class="cls-58"><tspan x="0" y="15.6">Major P</tspan><tspan class="cls-83" x="40.73" y="15.6">r</tspan><tspan x="45.11" y="15.6">odu</tspan><tspan class="cls-83" x="66.44" y="15.6">c</tspan><tspan x="72.24" y="15.6">tions L</tspan><tspan class="cls-126" x="108.35" y="15.6">L</tspan><tspan class="cls-63" x="114.33" y="15.6">C</tspan></tspan></text><text class="cls-101" transform="translate(0 151.38) scale(1.02 1)">Skills</text><text class="cls-44" transform="translate(55.67 97.92)">I am a <tspan class="cls-46" x="32.4" y="0">w</tspan><tspan x="40.97" y="0">eb d</tspan><tspan class="cls-127" x="62.61" y="0">e</tspan><tspan class="cls-46" x="68.63" y="0">v</tspan><tspan x="74.18" y="0">eloper and designer who is una</tspan><tspan class="cls-45" x="229.83" y="0">b</tspan><tspan x="236.3" y="0">ashed in my l</tspan><tspan class="cls-46" x="301.84" y="0">ov</tspan><tspan x="313.86" y="0">e </tspan><tspan class="cls-45" x="322.21" y="0">t</tspan><tspan x="326.1" y="0">o me</tspan><tspan class="cls-27" x="350.9" y="0">e</tspan><tspan x="356.73" y="0">t peopl</tspan><tspan class="cls-27" x="392.03" y="0">e</tspan><tspan class="cls-35" x="397.86" y="0">’</tspan><tspan x="400.26" y="0">s needs. </tspan><tspan x="0" y="14.4">I </tspan><tspan class="cls-46" x="5.56" y="14.4">w</tspan><tspan x="14.12" y="14.4">ork ti</tspan><tspan class="cls-27" x="40.14" y="14.4">r</tspan><tspan x="44.18" y="14.4">elessly </tspan><tspan class="cls-45" x="80.27" y="14.4">t</tspan><tspan x="84.15" y="14.4">o bring id</tspan><tspan class="cls-45" x="131.43" y="14.4">e</tspan><tspan x="137.22" y="14.4">as f</tspan><tspan class="cls-40" x="154.2" y="14.4">r</tspan><tspan x="158.24" y="14.4">om </tspan><tspan class="cls-24" x="177.09" y="14.4">c</tspan><tspan x="182.31" y="14.4">on</tspan><tspan class="cls-24" x="195.38" y="14.4">c</tspan><tspan x="200.6" y="14.4">e</tspan><tspan class="cls-37" x="206.55" y="14.4">p</tspan><tspan class="cls-29" x="213.01" y="14.4">t </tspan><tspan class="cls-45" x="219.46" y="14.4">t</tspan><tspan x="223.35" y="14.4">o </tspan><tspan class="cls-27" x="232.26" y="14.4">r</tspan><tspan class="cls-45" x="236.3" y="14.4">e</tspan><tspan x="242.08" y="14.4">ality th</tspan><tspan class="cls-27" x="276.79" y="14.4">r</tspan><tspan x="280.83" y="14.4">ough c</tspan><tspan class="cls-27" x="314.31" y="14.4">r</tspan><tspan class="cls-45" x="318.36" y="14.4">ea</tspan><tspan x="330.02" y="14.4">tivity and in</tspan><tspan class="cls-45" x="388.83" y="14.4">g</tspan><tspan x="394.71" y="14.4">enuit</tspan><tspan class="cls-128" x="420.76" y="14.4">y</tspan><tspan x="425.95" y="14.4">.</tspan></text><line class="cls-129" x1="54" y1="119.88" x2="499.5" y2="119.88"/><line class="cls-129" x1="130.5" y1="61.38" x2="427.5" y2="61.38"/><line class="cls-129" x1="54" y1="83.88" x2="499.5" y2="83.88"/><text class="cls-117" transform="translate(130.67 75.88)"><tspan class="cls-130">M</tspan><tspan class="cls-36" x="9.72" y="0">a</tspan><tspan class="cls-131" x="15.5" y="0">r</tspan><tspan x="19.48" y="0">ks828@</tspan><tspan class="cls-122" x="57.17" y="0">g</tspan><tspan class="cls-36" x="63.8" y="0">mai</tspan><tspan class="cls-27" x="82.4" y="0">l</tspan><tspan x="85.11" y="0">.</tspan><tspan class="cls-122" x="87.6" y="0">c</tspan><tspan class="cls-36" x="92.9" y="0">om |</tspan><tspan class="cls-132" x="114.91" y="0"> </tspan><tspan class="cls-120" x="117.02" y="0">W</tspan><tspan x="126.78" y="0">ashing</tspan><tspan class="cls-122" x="160.15" y="0">t</tspan><tspan x="164.05" y="0">on </tspan><tspan class="cls-133" x="179.84" y="0">D</tspan><tspan x="187.43" y="0">.C. , </tspan><tspan class="cls-134" x="206.92" y="0">M</tspan><tspan x="216.64" y="0">a</tspan><tspan class="cls-135" x="222.43" y="0">r</tspan><tspan class="cls-32" x="226.65" y="0">ylan</tspan><tspan class="cls-27" x="247.58" y="0">d</tspan><tspan class="cls-29" x="254.23" y="0">,</tspan><tspan class="cls-119" x="256.71" y="0"> </tspan><tspan class="cls-136" x="258.82" y="0">V</tspan><tspan x="265.33" y="0">i</tspan><tspan class="cls-137" x="268.14" y="0">r</tspan><tspan class="cls-122" x="271.96" y="0">g</tspan><tspan x="278.6" y="0">inia</tspan></text><text class="cls-101" transform="translate(0 398.88) scale(1.02 1)">Con<tspan class="cls-138" x="30.33" y="0">t</tspan><tspan x="36.45" y="0">a</tspan><tspan class="cls-102" x="45.74" y="0">c</tspan><tspan x="53.87" y="0">t</tspan></text><text class="cls-105" transform="translate(0 421.38) scale(1.02 1)">3<tspan class="cls-109" x="4.82" y="0">0</tspan><tspan x="10.19" y="0">1-919-8025</tspan></text><text class="cls-105" transform="translate(0 466.38) scale(1.02 1)">Lin<tspan class="cls-109" x="13.15" y="0">k</tspan><tspan x="17.85" y="0">edIn</tspan><tspan class="cls-109" x="37.6" y="0">.c</tspan><tspan x="44.01" y="0">om/in</tspan><tspan class="cls-107" x="71.88" y="0">/</tspan><tspan x="76.88" y="0">mar</tspan><tspan class="cls-139" x="94.42" y="0">k</tspan><tspan x="99.02" y="0">-s-</tspan><tspan class="cls-109" x="111.65" y="0">sw</tspan><tspan x="123" y="0">eet</tspan></text><text class="cls-105" transform="translate(0 488.88) scale(1.02 1)">Githu<tspan class="cls-106" x="23.75" y="0">b.c</tspan><tspan x="35.82" y="0">om</tspan><tspan class="cls-107" x="50" y="0">/</tspan><tspan x="55" y="0">marks828</tspan></text><text class="cls-105" transform="translate(0.2 443.88) scale(1.02 1)">mark<tspan class="cls-109" x="22.34" y="0">sw</tspan><tspan class="cls-108" x="33.69" y="0">eet.up</tspan><tspan class="cls-106" x="61.2" y="0">d</tspan><tspan x="66.91" y="0">og</tspan><tspan class="cls-109" x="77.55" y="0">.c</tspan><tspan x="83.96" y="0">o</tspan></text></svg>