<?xml version="1.0" encoding="utf-8"?>
<!-- Generator: Adobe Illustrator 26.0.1, SVG Export Plug-In . SVG Version: 6.00 Build 0)  -->
<svg version="1.1" id="Layer_1" xmlns="http://www.w3.org/2000/svg" xmlns:xlink="http://www.w3.org/1999/xlink" x="0px" y="0px"
	 viewBox="0 0 612 792" style="enable-background:new 0 0 612 792;" xml:space="preserve">
<style type="text/css">
	.st0{fill:#00AEEF;}
	.st1{font-family:'SourceSansPro-Semibold';}
	.st2{font-size:36px;}
	.st3{letter-spacing:2;}
	.st4{font-family:'SourceSansPro-Regular';}
	.st5{font-size:21px;}
	.st6{letter-spacing:1;}
	.st7{font-size:14px;}
	.st8{font-family:'SourceSansPro-Light';}
	.st9{font-size:11px;}
	.st10{font-size:10px;}
	.st11{font-size:13px;}
	.st12{font-size:12px;}
	.st13{font-family:'MyriadPro-Regular';}
	.st14{font-size:16px;}
	.st15{font-family:'FiraSans-ExtraLight';}
	.st16{letter-spacing:0.98;}
	.st17{font-size:18px;}
	.st18{font-size:20px;}
	.st19{fill:none;}
	.st20{fill:none;stroke:#00AEEF;stroke-miterlimit:10;}
</style>
<text transform="matrix(1 0 0 1 205.0572 49.5002)" class="st0 st1 st2 st3">Mark Sweet</text>
<text transform="matrix(1 0 0 1 179.4669 71.9998)" class="st4 st5 st6">Web Developer/Designer</text>
<text transform="matrix(1 0 0 1 202.5002 193.5)"><tspan x="0" y="0" class="st0 st1 st7">UX Developer - Feb 2017 - Present</tspan><tspan x="0" y="16.8" class="st4 st7">Navy Federal Credit Union - Vienna, VA</tspan><tspan x="0" y="30" class="st8 st9">– </tspan><tspan x="7.92" y="30" class="st8 st9">Performed between 5-20 site maintenance tasks and improvements a day</tspan><tspan x="0" y="43.2" class="st8 st9">– </tspan><tspan x="7.92" y="43.2" class="st8 st9">Update legacy code by bringing them up to ADA (WCAG 2.0) standards</tspan><tspan x="0" y="56.4" class="st8 st9">– </tspan><tspan x="7.92" y="56.4" class="st8 st9">Convert HTML code into reusable PHP component</tspan><tspan x="0" y="69.6" class="st8 st9">– </tspan><tspan x="7.92" y="69.6" class="st8 st9">Converted multiple PHP pages into Adobe Experience Manage (AEM) pages a week</tspan><tspan x="0" y="82.8" class="st8 st9">– </tspan><tspan x="7.92" y="82.8" class="st8 st9">Started AEM development and site maintenance and updates</tspan><tspan x="0" y="96" class="st8 st9">– Began building our customer facing style guide from the ground up</tspan><tspan x="0" y="109.2" class="st8 st9">– Took over as PO for style guide and revamped our design and development process</tspan><tspan x="0" y="122.4" class="st8 st9">to eliminate any unnecessary back and forth between designers and developers</tspan><tspan x="0" y="135.6" class="st8 st9">– Working to shift our left-over code base from SVN to Github and move our old code</tspan><tspan x="0" y="148.8" class="st8 st9">to new servers</tspan><tspan x="0" y="160.8" class="st8 st10">– Work with other devs to learn how to complete backend and app management ticket</tspan><tspan x="0" y="172.8" class="st8 st10">during our sprint </tspan><tspan x="0" y="186" class="st8 st9">– Actively training designers with new technology including Github and a new</tspan><tspan x="0" y="199.2" class="st8 st9">replication process using the command line</tspan><tspan x="0" y="212.4" class="st8 st9">– Study and present about new technologies that my team could use for</tspan><tspan x="0" y="225.6" class="st8 st9">automation and security among others during a quarterly presentation </tspan><tspan x="0" y="242.4" class="st0 st1 st7">Software Developer/Consultant - Mar - July 2017</tspan><tspan x="0" y="258" class="st4 st11">Capgemini - Chicago, IL</tspan><tspan x="0" y="271.2" class="st8 st9">– Used the Gosu programming language to build custom software in Guidewire</tspan><tspan x="0" y="284.4" class="st8 st9">–  Integrated client&apos;s old systems and information into Guidewire</tspan><tspan x="0" y="296.4" class="st8 st9">– Trained in consulting techniques including interviewing and creating proposals</tspan><tspan x="0" y="313.2" class="st0 st1 st7">Teaching Assistant - Jan - March 2017</tspan><tspan x="0" y="328.8" class="st4 st11">General Assembly - Washington D.C.</tspan><tspan x="0" y="343.2" class="st8 st9">– Selected from my class to be a teaching assistant for part time students</tspan><tspan x="0" y="357.6" class="st8 st9">– Worked with front-end web development students to help teach and </tspan><tspan x="0" y="372" class="st8 st9">answer any questions about front-end technologies being taught in class</tspan><tspan x="0" y="388.8" class="st0 st1 st7">Substitute Teacher - Mar 2014 - Mar 2018</tspan><tspan x="0" y="404.4" class="st4 st11">Montgomery County Public Schools</tspan><tspan x="0" y="418.8" class="st8 st9">– Lead classrooms of 25-30 students, teach a wide variety of subjects </tspan><tspan x="0" y="433.2" class="st8 st9">including math and science</tspan><tspan x="0" y="447.6" class="st8 st9">– Work directly with students to help with their schoolwork and homework</tspan><tspan x="0" y="481.2" class="st0 st1 st7">Other Experience</tspan><tspan x="0" y="495.6" class="st1 st12">Officeish, Consultant</tspan><tspan x="0" y="510" class="st8 st12">Washington D.C,  Sept 2017 (Contract)</tspan><tspan x="0" y="534.4" class="st1 st12">Fourth Presbyterian Church, Consultant</tspan><tspan x="0" y="548.8" class="st8 st12">Potomac, MD, Dec 2016 - Dec 2017</tspan></text>
<g>
	<text transform="matrix(1.0194 0 0 1 27 193.5)" class="st13 st14">Web Dev</text>
	<text transform="matrix(1.0194 0 0 1 27 209.5)"><tspan x="0" y="0" class="st15 st10 st16">HTML/CSS</tspan><tspan x="0" y="12" class="st15 st10 st16">JavaScript</tspan><tspan x="0" y="24" class="st15 st10 st16">React</tspan><tspan x="0" y="36" class="st15 st10 st16">Python</tspan><tspan x="0" y="48" class="st15 st10 st16">AEM</tspan><tspan x="0" y="60" class="st15 st10 st16">WCAG 2.0</tspan><tspan x="0" y="72" class="st15 st10 st16">Bootstrap</tspan><tspan x="0" y="84" class="st15 st10 st16">PHP</tspan><tspan x="0" y="96" class="st15 st10 st16">Selenium</tspan><tspan x="0" y="108" class="st15 st10 st16">Ruby</tspan><tspan x="0" y="120" class="st15 st10 st16">Angular</tspan></text>
</g>
<g>
	<text transform="matrix(1.0194 0 0 1 114.1582 193.5)" class="st13 st14">Design</text>
	<text transform="matrix(1.0194 0 0 1 114.1577 209.5)"><tspan x="0" y="0" class="st15 st10 st16">Sketch</tspan><tspan x="0" y="12" class="st15 st10 st16">Photoshop</tspan><tspan x="0" y="24" class="st15 st10 st16">Balsamiq</tspan><tspan x="0" y="36" class="st15 st10 st16">Invision</tspan><tspan x="0" y="48" class="st15 st10 st16">Illustrator</tspan><tspan x="0" y="86.4" class="st13 st14">Other</tspan><tspan x="0" y="98.4" class="st15 st10 st16">JIRA</tspan></text>
</g>
<text transform="matrix(1.0194 0 0 1 27.0005 364.5)" class="st0 st1 st17">Education</text>
<text transform="matrix(1.0194 0 0 1 27 387)" class="st15 st10">Visual Design</text>
<text transform="matrix(1.0194 0 0 1 27 399)" class="st15 st10">General Assembly - Nov 2017</text>
<text transform="matrix(1.0194 0 0 1 27 423)" class="st15 st10">User Experience Design</text>
<text transform="matrix(1.0194 0 0 1 27 435)" class="st15 st10">General Aseebmly - June 2017</text>
<text transform="matrix(1 0 0 1 27 459)" class="st15 st10">Web Dev Immersive Student</text>
<text transform="matrix(1 0 0 1 27 471)" class="st15 st10">General Assembly - Dec 2016</text>
<text transform="matrix(1.0194 0 0 1 27 495)" class="st15 st10">BS - Family Science</text>
<text transform="matrix(1.0194 0 0 1 27 507)" class="st15 st10">University of Maryland - 2012</text>
<text transform="matrix(1 0 0 1 202.4998 170.9999)" class="st0 st1 st18 st6">Experience</text>
<g>
</g>
<text transform="matrix(1.0179 0 0 1 27 171)" class="st0 st1 st17">Skills</text>
<rect x="82.67" y="109" class="st19" width="446.67" height="32.67"/>
<text transform="matrix(1 0 0 1 83.5236 117.5438)"><tspan x="0" y="0" class="st4 st12">I am a web developer who is always looking to learn and expand my skills and knowledge </tspan><tspan x="100.82" y="14.4" class="st4 st12">and have a passion for teaching and accessibility </tspan></text>
<line class="st20" x1="81" y1="139.5" x2="526.5" y2="139.5"/>
<line class="st20" x1="157.5" y1="81" x2="454.5" y2="81"/>
<line class="st20" x1="81" y1="103.5" x2="526.5" y2="103.5"/>
<text transform="matrix(1 0 0 1 157.6707 95.5)" class="st13 st12">Marks828@gmail.com | Washington D.C. , Maryland, Virginia</text>
<text transform="matrix(1.0194 0 0 1 27.0005 549)" class="st0 st1 st17">Contact</text>
<text transform="matrix(1.0194 0 0 1 27 571.5)" class="st15 st10">301-919-8025</text>
<text transform="matrix(1.0194 0 0 1 27 616.5)" class="st15 st10">LinkedIn.com/in/mark-s-sweet</text>
<text transform="matrix(1.0194 0 0 1 27 639)" class="st15 st10">Github.com/marks828</text>
<text transform="matrix(1.0194 0 0 1 27.2002 594)" class="st15 st10">https://mark-sweet.netlify.app/</text>
</svg>
