<?xml version="1.0" encoding="utf-8"?>
<!-- Generator: Adobe Illustrator 22.0.0, SVG Export Plug-In . SVG Version: 6.00 Build 0)  -->
<svg version="1.1" id="Layer_1" xmlns="http://www.w3.org/2000/svg" xmlns:xlink="http://www.w3.org/1999/xlink" x="0px" y="0px"
	 viewBox="0 0 612 792" style="enable-background:new 0 0 612 792;" xml:space="preserve">
<style type="text/css">
	.st0{fill:#00AEEF;}
	.st1{font-family:'SourceSansPro-Semibold';}
	.st2{font-size:36px;}
	.st3{letter-spacing:2;}
	.st4{font-family:'SourceSansPro-Regular';}
	.st5{font-size:21px;}
	.st6{letter-spacing:1;}
	.st7{font-size:14px;}
	.st8{font-size:13px;}
	.st9{font-family:'SourceSansPro-Light';}
	.st10{font-size:11px;}
	.st11{letter-spacing:14;}
	.st12{font-size:12px;}
	.st13{fill:#2AACE2;}
	.st14{font-size:20px;}
	.st15{font-family:'MyriadPro-Regular';}
	.st16{font-size:16px;}
	.st17{font-family:'FiraSans-ExtraLight';}
	.st18{font-size:10px;}
	.st19{font-size:18px;}
	.st20{fill:none;}
	.st21{fill:none;stroke:#00AEEF;stroke-miterlimit:10;}
</style>
<text transform="matrix(1 0 0 1 205.0572 49.5002)" class="st0 st1 st2 st3">Mark Sweet</text>
<text transform="matrix(1 0 0 1 179.4669 71.9998)" class="st4 st5 st6">Web Developer/Designer</text>
<text transform="matrix(1 0 0 1 202.5002 193.5)"><tspan x="0" y="0" class="st0 st1 st7">Design and Front-End Consultant - Sept 2017 (Contract) </tspan><tspan x="0" y="15.6" class="st4 st8">Officeish - Washington D.C.</tspan><tspan x="0" y="28.8" class="st9 st10">•</tspan><tspan x="3.1" y="28.8" class="st9 st10 st11">	</tspan><tspan x="20" y="28.8" class="st9 st10">Critiqued the site design and offered alternative design options to the co-founder</tspan><tspan x="0" y="42" class="st9 st10">•</tspan><tspan x="3.1" y="42" class="st9 st10 st11">	</tspan><tspan x="20" y="42" class="st9 st10">Used Selenium Webdriver to run automated QA testing</tspan><tspan x="0" y="55.2" class="st9 st10">•</tspan><tspan x="3.1" y="55.2" class="st9 st10 st11">	</tspan><tspan x="20" y="55.2" class="st9 st10">Advised on front-end coding solutions to design problems</tspan><tspan x="0" y="80" class="st0 st1 st7">Software Developer/Consultant - Mar - July 2017</tspan><tspan x="0" y="94.4" class="st4 st12">Capgemini - Chicago, IL</tspan><tspan x="0" y="107.6" class="st9 st10">•</tspan><tspan x="3.1" y="107.6" class="st9 st10 st11">	</tspan><tspan x="20" y="107.6" class="st9 st10">Used the Gosu programming language to build custom software in Guidewire</tspan><tspan x="0" y="120.8" class="st9 st10">•</tspan><tspan x="3.1" y="120.8" class="st9 st10 st11">	</tspan><tspan x="20" y="120.8" class="st9 st10">Integrated client&apos;s old systems and information into Guidewire</tspan><tspan x="0" y="135.2" class="st9 st10">•</tspan><tspan x="3.1" y="135.2" class="st9 st10 st11">	</tspan><tspan x="20" y="135.2" class="st9 st10">Trained in consulting techniques including interviewing and creating proposals</tspan><tspan x="0" y="160" class="st0 st1 st7">UX/Web Designer - Dec 2016 - Present</tspan><tspan x="0" y="174.4" class="st4 st8">Fourth Presbyterian Church - Potomac, MD</tspan><tspan x="0" y="188.8" class="st9 st10">•</tspan><tspan x="3.1" y="188.8" class="st9 st10 st11">	</tspan><tspan x="20" y="188.8" class="st9 st10">Create and iterate on wireframes, prototypes based on feedback from </tspan><tspan x="20" y="203.2" class="st9 st10">interviews and testing</tspan><tspan x="0" y="220" class="st0 st1 st7">Teaching Assistant - Jan - March 2017</tspan><tspan x="0" y="235.6" class="st4 st8">General Assembly - Washington D.C.</tspan><tspan x="0" y="250" class="st9 st10">•</tspan><tspan x="3.1" y="250" class="st9 st10 st11">	</tspan><tspan x="20" y="250" class="st9 st10">Selected from my class to be a teaching assistant for part time students</tspan><tspan x="0" y="264.4" class="st9 st10">•</tspan><tspan x="3.1" y="264.4" class="st9 st10 st11">	</tspan><tspan x="20" y="264.4" class="st9 st10">Worked with front-end web development students to help teach and  </tspan><tspan x="20" y="278.8" class="st9 st10">answer any questions about front-end technologies being taught in class</tspan><tspan x="0" y="295.6" class="st0 st1 st7">Web Development Immersive Student - Sep - Dec 2016</tspan><tspan x="0" y="311.2" class="st4 st8">General Assembly - Washington D.C.</tspan><tspan x="0" y="325.6" class="st9 st10">•</tspan><tspan x="3.1" y="325.6" class="st9 st10 st11">	</tspan><tspan x="20" y="325.6" class="st9 st10">Three month (480+ hours) web development course where I learned  </tspan><tspan x="20" y="340" class="st9 st10">and utilized the most popular front and back-end languages including:  </tspan><tspan x="20" y="354.4" class="st9 st10">HTML/CSS, JavaScript, Ruby on Rails, Angular, React, and others</tspan><tspan x="0" y="368.8" class="st9 st10">•</tspan><tspan x="3.1" y="368.8" class="st9 st10 st11">	</tspan><tspan x="20" y="368.8" class="st9 st10">Trivia Project: HTML/CSS/JavaScript/jQuery, </tspan><tspan x="0" y="383.2" class="st9 st10">•</tspan><tspan x="3.1" y="383.2" class="st9 st10 st11">	</tspan><tspan x="20" y="383.2" class="st9 st10">FeedMe Project: Rails backend, Angular Front-end</tspan><tspan x="0" y="408" class="st0 st1 st7">Substitute Teacher - Mar 2014 - Present</tspan><tspan x="0" y="423.6" class="st4 st8">Montgomery County Public Schools - Rockville, MD</tspan><tspan x="0" y="438" class="st9 st10">•</tspan><tspan x="3.1" y="438" class="st9 st10 st11">	</tspan><tspan x="20" y="438" class="st9 st10">Lead classrooms of 25-30 students, teach a wide variety of subjects  </tspan><tspan x="20" y="452.4" class="st9 st10">including math and science</tspan><tspan x="0" y="466.8" class="st9 st10">•</tspan><tspan x="3.1" y="466.8" class="st9 st10 st11">	</tspan><tspan x="20" y="466.8" class="st9 st10">Work directly with students to help with their school work and homework</tspan><tspan x="0" y="501.6" class="st13 st1 st14">OTHER WORK EXPERIENCE</tspan><tspan x="0" y="518.4" class="st0 st1 st7">Owner and Photographer - Jan 2012 - Present</tspan><tspan x="0" y="534" class="st4 st8">Mark Sweet Photography - Rockville, MD</tspan><tspan x="0" y="550.8" class="st0 st1 st7">Personal Assistant - Sep  - Dec 2015</tspan><tspan x="0" y="566.4" class="st4 st8">Major Productions LLC</tspan></text>
<g>
	<text transform="matrix(1.0194 0 0 1 26.9995 193.5)" class="st15 st16">Web Dev</text>
	<text transform="matrix(1.0194 0 0 1 27 209.5)"><tspan x="0" y="0" class="st17 st18 st6">HTML/CSS</tspan><tspan x="0" y="12" class="st17 st18 st6">JavaScript</tspan><tspan x="0" y="24" class="st17 st18 st6">React</tspan><tspan x="0" y="36" class="st17 st18 st6">Bootstrap</tspan><tspan x="0" y="48" class="st17 st18 st6">Python</tspan><tspan x="0" y="60" class="st17 st18 st6">Selenium</tspan><tspan x="0" y="72" class="st17 st18 st6">Ruby</tspan><tspan x="0" y="84" class="st17 st18 st6">Angular</tspan></text>
</g>
<g>
	<text transform="matrix(1.0194 0 0 1 114.1582 193.5)" class="st15 st16">Design</text>
	<text transform="matrix(1.0194 0 0 1 114.1577 209.5)"><tspan x="0" y="0" class="st17 st18 st6">Sketch</tspan><tspan x="0" y="12" class="st17 st18 st6">Photoshop</tspan><tspan x="0" y="24" class="st17 st18 st6">Balsamiq</tspan><tspan x="0" y="36" class="st17 st18 st6">Invision</tspan><tspan x="0" y="48" class="st17 st18 st6">Wireframing</tspan><tspan x="0" y="60" class="st17 st18 st6">Research</tspan><tspan x="0" y="72" class="st17 st18 st6">Illustrator</tspan></text>
</g>
<text transform="matrix(1.0194 0 0 1 27.0005 319.5)" class="st0 st1 st19">EDUCATION</text>
<text transform="matrix(1.0194 0 0 1 27 342)"><tspan x="0" y="0" class="st17 st18">Visual Design</tspan><tspan x="0" y="12" class="st17 st18">General Assembly - Nov 2017</tspan><tspan x="0" y="36" class="st17 st18">User Experience Design</tspan><tspan x="0" y="48" class="st17 st18">General Aseebmly - June 2017</tspan><tspan x="0" y="76.8" class="st17 st18">BS - Family Science</tspan><tspan x="0" y="88.8" class="st17 st18">University of Maryland - 2012</tspan></text>
<text transform="matrix(1 0 0 1 202.4998 170.9999)" class="st0 st1 st14 st6">EXPERIENCE</text>
<g>
</g>
<text transform="matrix(1.0179 0 0 1 27 171)" class="st0 st1 st19">SKILLS</text>
<rect x="82.7" y="109" class="st20" width="446.7" height="32.7"/>
<text transform="matrix(1 0 0 1 82.6667 117.5438)"><tspan x="0" y="0" class="st4 st12">I am a web developer and designer who is unabashed in my love to meet people’s needs. </tspan><tspan x="0" y="14.4" class="st4 st12">I work tirelessly to bring ideas from concept to reality through creativity and ingenuity.</tspan></text>
<line class="st21" x1="81" y1="139.5" x2="526.5" y2="139.5"/>
<line class="st21" x1="157.5" y1="81" x2="454.5" y2="81"/>
<line class="st21" x1="81" y1="103.5" x2="526.5" y2="103.5"/>
<text transform="matrix(1 0 0 1 157.6707 95.5)" class="st15 st12">Marks828@gmail.com | Washington D.C. , Maryland, Virginia</text>
<text transform="matrix(1.0194 0 0 1 27.0005 468)" class="st13 st1 st19">CONTACT</text>
<text transform="matrix(1.0194 0 0 1 27 490.5)" class="st17 st18">301-919-8025</text>
<text transform="matrix(1.0194 0 0 1 27 535.5)" class="st17 st18">LinkedIn.com/in/mark-s-sweet</text>
<text transform="matrix(1.0194 0 0 1 27 558)" class="st17 st18">Github.com/marks828</text>
<text transform="matrix(1.0194 0 0 1 27.2002 513)" class="st17 st18">marksweet.herokuapp.com</text>
</svg>
